<?xml version="1.0" encoding="UTF-8" standalone="no"?>
<!-- Created with Inkscape (http://www.inkscape.org/) -->

<svg
   version="1.1"
   id="svg1"
   width="918.76855"
   height="319.55704"
   viewBox="0 0 918.76855 319.55704"
   sodipodi:docname="iLoopLogo.svg"
   inkscape:version="1.4 (86a8ad7, 2024-10-11)"
   inkscape:export-filename="iLoopLogo.png"
   inkscape:export-xdpi="96"
   inkscape:export-ydpi="96"
   xmlns:inkscape="http://www.inkscape.org/namespaces/inkscape"
   xmlns:sodipodi="http://sodipodi.sourceforge.net/DTD/sodipodi-0.dtd"
   xmlns="http://www.w3.org/2000/svg"
   xmlns:svg="http://www.w3.org/2000/svg">
  <defs
     id="defs1" />
  <sodipodi:namedview
     id="namedview1"
     pagecolor="#ffffff"
     bordercolor="#000000"
     borderopacity="0.25"
     inkscape:showpageshadow="2"
     inkscape:pageopacity="0.0"
     inkscape:pagecheckerboard="0"
     inkscape:deskcolor="#d1d1d1"
     inkscape:zoom="0.65708274"
     inkscape:cx="459.60726"
     inkscape:cy="159.03629"
     inkscape:window-width="1920"
     inkscape:window-height="1051"
     inkscape:window-x="-9"
     inkscape:window-y="-9"
     inkscape:window-maximized="1"
     inkscape:current-layer="g1" />
  <g
     inkscape:groupmode="layer"
     inkscape:label="Image"
     id="g1"
     transform="translate(-10.615709,-40.621472)">
    <path
       style="fill:#000000"
       d="m 760.77897,359.69163 c -0.79392,-0.32035 -1,-25.77871 -1,-123.53683 V 113.02147 h 21.91441 c 19.91825,0 21.96212,0.12432 22.43817,1.36491 0.28807,0.7507 0.46362,5.8807 0.3901,11.4 -0.12498,9.38316 -0.0325,10.05052 1.4239,10.27265 1.12816,0.17207 2.70069,-1.29972 5.70405,-5.33863 6.3787,-8.57804 16.18791,-15.16215 28.15853,-18.90045 6.58511,-2.05647 23.44074,-2.52077 32.84317,-0.9047 27.77231,4.77346 46.14132,24.35005 53.39598,56.90621 2.56591,11.51483 3.34262,19.13964 3.33698,32.75848 -0.0132,31.76005 -7.54848,54.95875 -23.10156,71.12191 -10.38117,10.78837 -20.87772,16.09722 -38.36051,19.40163 -13.23092,2.50077 -30.34427,0.15856 -42.54322,-5.82265 -4.47637,-2.19479 -7.58371,-4.54428 -12.23661,-9.25221 -3.43014,-3.47071 -6.77391,-6.19715 -7.4306,-6.05877 -1.04184,0.21955 -1.18845,5.87971 -1.15049,44.41656 0.0423,42.99489 0.002,44.18707 -1.51681,45 -1.57005,0.84027 -40.24731,1.11958 -42.26549,0.30522 z m 91.40026,-106.24514 c 16.13581,-3.08729 25.94816,-13.65792 29.52485,-31.80646 2.5492,-12.9349 2.22114,-33.77942 -0.70851,-45.01857 -4.3746,-16.78248 -14.97661,-26.75681 -30.48261,-28.67791 -23.21496,-2.87619 -39.65557,9.2928 -44.68912,33.07791 -2.5903,12.24001 -2.26418,31.02615 0.74299,42.8 2.03502,7.96761 6.52383,15.96252 11.58226,20.62889 5.36521,4.94935 9.97923,7.37416 16.92196,8.89301 6.78687,1.48475 9.79244,1.50286 17.10818,0.10313 z M 15.352852,288.03457 c -0.212278,-0.55721 -0.293243,-40.07311 -0.179921,-87.81311 l 0.20604,-86.79999 h 21.6 21.600004 v 87.59999 87.6 l -21.420083,0.21311 c -16.704438,0.16618 -21.505049,-0.01 -21.80604,-0.8 z m 84.163529,0.45764 c -0.29557,-0.29558 -0.53741,-52.67741 -0.53741,-116.40408 V 56.221476 h 23.199999 23.2 v 96.799984 96.8 h 51.50204 c 42.73126,0 51.65757,0.1874 52.41528,1.10038 0.64008,0.77125 0.84884,6.57381 0.69795,19.4 l -0.21527,18.29962 -74.86259,0.20408 c -41.17442,0.11224 -75.104419,-0.0378 -75.399999,-0.33333 z m 289.462589,-7.19999 c -9.87685,-1.19142 -19.64323,-3.24 -26.73873,-5.60869 -33.92491,-11.32514 -61.38534,-37.8132 -73.67074,-71.06207 -5.25228,-14.21463 -6.79842,-23.65467 -6.74798,-41.2 0.0355,-12.33277 0.34781,-16.20031 1.87368,-23.19999 4.96675,-22.78415 15.42602,-41.861387 32.03335,-58.427407 17.6243,-17.580467 38.01102,-28.498789 62.17361,-33.29775 10.66643,-2.118471 32.58098,-1.918551 42.43096,0.387084 29.50546,6.906489 51.43879,23.184049 72.4098,53.738073 7.39328,10.77174 13.69752,22.00034 26.50022,47.19999 20.86175,41.06237 29.56306,55.1952 41.88925,68.03733 13.69344,14.26661 24.67473,19.21029 42.70789,19.2267 13.5019,0.0123 22.47225,-2.0977 34.38739,-8.08852 35.11483,-17.65539 49.73177,-61.67299 32.24333,-97.09791 -7.40396,-14.99762 -19.01825,-26.41711 -34.29203,-33.716877 -8.27248,-3.95366 -13.75531,-5.4985 -24.2618,-6.83599 -11.87327,-1.51149 -25.07777,1.03589 -35.4419,6.83737 -8.89021,4.976427 -19.21811,15.487387 -28.11257,28.610857 -2.30105,3.39513 -4.36373,6.17389 -4.58373,6.17504 -0.22,0.001 -3.28,-5.44849 -6.8,-12.1103 -3.52,-6.66181 -8.85609,-16.21167 -11.85798,-21.221887 l -5.45798,-9.10951 3.03824,-3.75315 c 9.37859,-11.5854 23.29105,-22.980777 35.80129,-29.324007 15.34037,-7.778234 26.12006,-10.239202 45.27643,-10.336467 15.7298,-0.07987 21.3993,0.702542 35.17691,4.854515 18.58934,5.602022 33.77142,14.821822 48.49009,29.447129 17.03861,16.93054 27.29503,35.517207 32.44992,58.805687 1.57235,7.10351 1.86116,10.68428 1.87121,23.19999 0.0121,15.0866 -0.64772,20.68744 -3.72269,31.6 -7.20175,25.55783 -22.17975,47.36551 -43.39933,63.18861 -30.87889,23.02588 -71.40995,29.61367 -105.26611,17.1096 -6.20254,-2.29078 -16.15858,-7.41043 -21.91036,-11.26687 -22.60833,-15.15837 -39.64367,-38.06742 -62.74365,-84.37737 -21.06701,-42.23436 -31.59186,-58.97699 -45.45287,-72.30518 -10.48436,-10.081327 -19.01615,-14.229447 -32.93958,-16.015047 -16.30089,-2.09051 -35.97595,3.09471 -50.08254,13.198887 -5.55193,3.97671 -14.20264,12.75014 -17.81464,18.06738 -9.05457,13.32927 -13.89604,30.99434 -12.68698,46.29106 2.02704,25.64571 15.97359,47.45356 38.13928,59.63734 10.68433,5.87285 21.61476,8.52751 35.06878,8.51712 22.79526,-0.0176 39.16032,-10.29512 56.3115,-35.36452 3.15391,-4.60998 4.51232,-6.02388 5.07948,-5.28696 0.42581,0.55328 3.22342,5.68595 6.2169,11.40595 2.99349,5.72 8.11161,14.83953 11.3736,20.26562 l 5.93089,9.86561 -2.21909,2.93439 c -2.81792,3.72624 -13.95663,14.8732 -18.67072,18.68454 -10.52198,8.50702 -27.07909,16.60943 -39.6,19.3787 -11.06925,2.44821 -25.41975,3.42517 -34.4,2.3419 z M 28.978971,91.151913 c -8.180485,-2.72727 -12.883951,-6.57251 -16.577524,-13.55269 -1.505899,-2.845867 -1.787093,-4.637487 -1.785733,-11.377757 0.0014,-7.10803 0.239038,-8.45401 2.131058,-12.07201 2.588313,-4.949486 6.689901,-8.677051 12.595694,-11.447094 3.751646,-1.759665 5.550843,-2.08089 11.655172,-2.08089 6.544379,0 7.717397,0.245609 12.557887,2.629398 9.57631,4.716028 14.48436,12.638976 14.4063,23.255756 -0.10474,14.247807 -10.504425,24.599127 -25.502211,25.383607 -3.958352,0.20704 -7.463855,-0.066 -9.480643,-0.73832 z"
       id="path1-8" />
  </g>
</svg>
